<svg id="svg" version="1.1" xmlns="http://www.w3.org/2000/svg" xmlns:xlink="http://www.w3.org/1999/xlink" width="400" height="340.9783480352847" viewBox="0, 0, 400,340.9783480352847"><g id="svgg"><path id="path0" d="M284.992 32.411 C 249.241 36.480,234.009 80.147,259.481 105.544 C 285.374 131.361,329.444 115.276,332.602 78.857 C 334.932 51.979,311.751 29.366,284.992 32.411 M102.593 32.882 C 66.610 39.666,54.653 85.422,82.867 108.369 C 115.494 134.904,162.882 103.485,151.248 63.031 C 145.371 42.598,123.370 28.964,102.593 32.882 M192.622 105.989 C 147.707 113.517,134.502 171.018,171.826 196.538 C 203.975 218.520,247.631 196.726,249.777 157.624 C 251.461 126.946,222.687 100.950,192.622 105.989 M66.940 111.085 C 46.787 127.748,32.398 160.434,32.398 189.552 L 32.398 193.396 34.884 194.179 C 60.805 202.341,101.859 206.748,127.987 204.173 L 130.393 203.936 131.836 202.160 C 134.325 199.099,141.470 192.096,145.148 189.114 C 147.089 187.540,148.800 186.148,148.951 186.020 C 149.102 185.891,148.355 184.004,147.291 181.826 C 136.691 160.140,139.796 134.839,155.254 116.921 L 157.192 114.675 155.767 113.364 C 154.983 112.642,153.628 111.454,152.754 110.722 L 151.166 109.393 149.448 111.232 C 128.587 133.567,94.259 134.449,72.734 113.204 L 68.925 109.444 66.940 111.085 M245.434 111.978 C 242.766 114.303,242.503 114.629,242.910 115.106 C 260.084 135.230,263.577 159.243,252.566 181.504 C 251.402 183.857,250.574 185.899,250.726 186.042 C 250.878 186.184,251.941 187.045,253.087 187.954 C 258.321 192.103,266.229 199.865,269.214 203.784 C 269.548 204.221,271.081 204.356,279.401 204.679 C 307.429 205.766,340.662 201.696,365.517 194.134 L 367.442 193.548 367.550 191.000 C 368.441 169.966,358.610 140.693,344.826 123.336 C 340.839 118.316,332.794 110.157,331.188 109.503 C 331.008 109.430,329.199 110.997,327.168 112.985 C 306.065 133.641,273.869 133.734,252.625 113.199 C 250.453 111.100,248.617 109.383,248.544 109.383 C 248.471 109.383,247.072 110.551,245.434 111.978 M150.737 196.230 C 126.067 216.640,110.504 251.583,109.640 288.504 L 109.543 292.645 113.553 293.876 C 165.246 309.749,232.893 309.695,286.608 293.740 L 290.136 292.692 290.241 290.291 C 290.486 284.689,288.971 270.823,287.228 262.723 C 281.433 235.782,267.811 211.876,249.510 196.525 L 247.697 195.004 244.378 198.423 C 219.717 223.828,178.204 223.437,154.549 197.577 L 152.205 195.016 150.737 196.230 " stroke="none" fill="#f48c04" fill-rule="evenodd"></path><path id="path1" d="M140.337 44.587 C 141.026 45.293,141.662 45.870,141.750 45.870 C 141.838 45.870,141.347 45.293,140.658 44.587 C 139.968 43.881,139.333 43.304,139.244 43.304 C 139.156 43.304,139.648 43.881,140.337 44.587 M153.103 73.456 C 153.103 74.427,153.163 74.824,153.237 74.338 C 153.310 73.853,153.310 73.059,153.237 72.574 C 153.163 72.089,153.103 72.486,153.103 73.456 M66.795 75.060 C 66.795 75.678,66.861 75.930,66.941 75.621 C 67.022 75.313,67.022 74.808,66.941 74.499 C 66.861 74.190,66.795 74.443,66.795 75.060 M153.099 76.824 C 153.101 77.706,153.164 78.029,153.237 77.542 C 153.311 77.054,153.309 76.332,153.233 75.938 C 153.157 75.543,153.097 75.942,153.099 76.824 M68.454 109.432 C 68.308 109.668,68.366 109.715,68.615 109.561 C 68.835 109.425,69.312 109.579,69.707 109.912 L 70.409 110.505 69.798 109.783 C 69.113 108.974,68.789 108.890,68.454 109.432 M147.543 112.831 L 145.790 114.675 147.634 112.922 C 149.348 111.293,149.626 110.986,149.388 110.986 C 149.337 110.986,148.507 111.816,147.543 112.831 M61.742 115.557 L 58.861 118.524 61.828 115.644 C 64.584 112.969,64.942 112.590,64.709 112.590 C 64.661 112.590,63.326 113.925,61.742 115.557 M163.913 120.449 C 162.599 121.772,161.596 122.855,161.684 122.855 C 161.772 122.855,162.920 121.772,164.234 120.449 C 165.549 119.126,166.552 118.043,166.463 118.043 C 166.375 118.043,165.228 119.126,163.913 120.449 M149.874 151.083 C 149.874 151.700,149.940 151.953,150.021 151.644 C 150.101 151.335,150.101 150.830,150.021 150.521 C 149.940 150.213,149.874 150.465,149.874 151.083 M141.241 153.007 C 141.241 154.154,141.300 154.623,141.371 154.050 C 141.442 153.476,141.442 152.538,141.371 151.965 C 141.300 151.391,141.241 151.860,141.241 153.007 M250.000 155.413 C 250.000 157.354,250.053 158.106,250.117 157.085 C 250.181 156.064,250.180 154.477,250.116 153.557 C 250.051 152.637,249.999 153.472,250.000 155.413 M141.238 157.658 C 141.240 158.717,141.300 159.111,141.371 158.535 C 141.443 157.958,141.441 157.092,141.368 156.610 C 141.295 156.128,141.236 156.600,141.238 157.658 M32.158 186.848 C 32.161 187.554,32.227 187.805,32.304 187.406 C 32.381 187.007,32.378 186.430,32.297 186.123 C 32.217 185.816,32.154 186.143,32.158 186.848 M161.989 188.380 C 161.989 188.429,163.107 189.547,164.475 190.866 L 166.961 193.264 164.563 190.778 C 162.336 188.469,161.989 188.146,161.989 188.380 M137.764 196.071 L 134.884 199.038 137.851 196.157 C 139.483 194.573,140.818 193.238,140.818 193.190 C 140.818 192.957,140.439 193.315,137.764 196.071 M156.536 199.358 C 158.027 200.858,159.320 202.085,159.408 202.085 C 159.497 202.085,158.348 200.858,156.856 199.358 C 155.365 197.859,154.072 196.632,153.984 196.632 C 153.895 196.632,155.044 197.859,156.536 199.358 M250.521 197.053 C 250.521 197.108,250.990 197.577,251.564 198.096 L 252.606 199.038 251.664 197.995 C 250.786 197.023,250.521 196.805,250.521 197.053 M243.447 199.118 L 242.342 200.321 243.545 199.215 C 244.664 198.186,244.895 197.915,244.650 197.915 C 244.596 197.915,244.055 198.456,243.447 199.118 M146.416 199.599 L 145.148 200.962 146.512 199.694 C 147.779 198.515,148.022 198.236,147.780 198.236 C 147.727 198.236,147.114 198.849,146.416 199.599 M255.319 201.524 C 256.649 202.940,256.937 203.195,256.937 202.954 C 256.937 202.902,256.251 202.217,255.413 201.430 L 253.889 200.000 255.319 201.524 M131.165 203.244 C 130.929 203.528,130.442 203.880,130.083 204.025 C 129.623 204.212,129.580 204.296,129.936 204.310 C 130.214 204.321,130.781 203.970,131.195 203.528 C 131.609 203.087,131.869 202.727,131.771 202.727 C 131.674 202.727,131.401 202.959,131.165 203.244 M142.241 203.769 L 141.299 204.812 142.342 203.869 C 143.313 202.991,143.532 202.727,143.284 202.727 C 143.229 202.727,142.759 203.196,142.241 203.769 M92.462 204.552 C 92.771 204.632,93.276 204.632,93.585 204.552 C 93.893 204.471,93.641 204.405,93.023 204.405 C 92.406 204.405,92.153 204.471,92.462 204.552 M125.345 204.557 C 125.744 204.634,126.321 204.631,126.628 204.551 C 126.934 204.471,126.608 204.408,125.902 204.411 C 125.196 204.415,124.946 204.481,125.345 204.557 M98.723 204.884 C 99.299 204.955,100.165 204.954,100.647 204.880 C 101.129 204.807,100.658 204.749,99.599 204.751 C 98.540 204.752,98.146 204.812,98.723 204.884 M118.290 204.884 C 118.866 204.955,119.732 204.954,120.214 204.880 C 120.696 204.807,120.225 204.749,119.166 204.751 C 118.107 204.752,117.713 204.812,118.290 204.884 M198.487 205.530 C 199.419 205.595,200.863 205.594,201.695 205.528 C 202.527 205.462,201.764 205.409,200.000 205.410 C 198.236 205.411,197.555 205.465,198.487 205.530 M109.457 284.844 C 109.457 285.461,109.523 285.714,109.604 285.405 C 109.684 285.096,109.684 284.591,109.604 284.282 C 109.523 283.974,109.457 284.226,109.457 284.844 M290.396 288.532 C 290.398 289.591,290.458 289.985,290.529 289.409 C 290.601 288.832,290.599 287.966,290.526 287.484 C 290.453 287.002,290.394 287.474,290.396 288.532 M217.241 305.594 C 217.550 305.675,218.055 305.675,218.364 305.594 C 218.673 305.513,218.420 305.447,217.803 305.447 C 217.185 305.447,216.933 305.513,217.241 305.594 M186.287 305.920 C 186.684 305.996,187.334 305.996,187.731 305.920 C 188.128 305.844,187.803 305.781,187.009 305.781 C 186.215 305.781,185.890 305.844,186.287 305.920 M210.510 305.924 C 210.997 305.998,211.719 305.996,212.113 305.919 C 212.508 305.843,212.109 305.783,211.227 305.785 C 210.345 305.788,210.022 305.850,210.510 305.924 " stroke="none" fill="#bbccc3" fill-rule="evenodd"></path><path id="path2" d="M108.990 32.312 C 109.744 32.380,110.899 32.379,111.556 32.310 C 112.213 32.241,111.596 32.186,110.184 32.187 C 108.773 32.188,108.236 32.245,108.990 32.312 M139.214 43.785 C 139.813 44.403,140.374 44.908,140.463 44.908 C 140.551 44.908,140.133 44.403,139.535 43.785 C 138.936 43.168,138.375 42.662,138.286 42.662 C 138.198 42.662,138.616 43.168,139.214 43.785 M79.534 44.828 L 78.428 46.030 79.631 44.925 C 80.751 43.896,80.981 43.625,80.737 43.625 C 80.683 43.625,80.142 44.166,79.534 44.828 M140.327 105.613 L 138.412 107.618 140.417 105.704 C 142.279 103.925,142.569 103.609,142.332 103.609 C 142.282 103.609,141.380 104.511,140.327 105.613 M199.124 105.445 C 199.700 105.516,200.566 105.515,201.048 105.442 C 201.530 105.369,201.059 105.310,200.000 105.312 C 198.941 105.314,198.547 105.374,199.124 105.445 M64.615 112.991 L 63.673 114.034 64.715 113.092 C 65.687 112.213,65.905 111.949,65.657 111.949 C 65.602 111.949,65.133 112.418,64.615 112.991 M59.162 118.444 L 58.220 119.487 59.262 118.545 C 59.836 118.026,60.305 117.557,60.305 117.502 C 60.305 117.254,60.040 117.473,59.162 118.444 M108.982 118.275 C 109.555 118.347,110.493 118.347,111.067 118.275 C 111.640 118.204,111.171 118.146,110.024 118.146 C 108.877 118.146,108.408 118.204,108.982 118.275 M235.285 120.289 C 236.510 121.524,237.585 122.534,237.673 122.534 C 237.761 122.534,236.831 121.524,235.605 120.289 C 234.380 119.054,233.305 118.043,233.217 118.043 C 233.129 118.043,234.059 119.054,235.285 120.289 M149.913 155.413 C 149.912 157.001,149.967 157.691,150.034 156.946 C 150.101 156.202,150.102 154.903,150.036 154.059 C 149.969 153.216,149.914 153.825,149.913 155.413 M162.791 188.933 C 163.480 189.639,164.116 190.217,164.204 190.217 C 164.292 190.217,163.801 189.639,163.111 188.933 C 162.422 188.228,161.786 187.650,161.698 187.650 C 161.610 187.650,162.102 188.228,162.791 188.933 M235.113 190.778 L 233.360 192.622 235.204 190.869 C 236.918 189.240,237.196 188.933,236.958 188.933 C 236.908 188.933,236.078 189.763,235.113 190.778 M32.180 191.500 C 32.180 192.646,32.238 193.115,32.309 192.542 C 32.380 191.969,32.380 191.030,32.309 190.457 C 32.238 189.884,32.180 190.353,32.180 191.500 M166.319 192.462 C 167.008 193.168,167.644 193.745,167.732 193.745 C 167.821 193.745,167.329 193.168,166.640 192.462 C 165.951 191.756,165.315 191.179,165.227 191.179 C 165.138 191.179,165.630 191.756,166.319 192.462 M137.441 196.071 L 135.204 198.396 137.530 196.159 C 139.690 194.082,140.002 193.745,139.767 193.745 C 139.718 193.745,138.672 194.791,137.441 196.071 M151.699 195.269 C 151.339 195.744,151.342 195.769,151.719 195.433 C 152.076 195.115,152.295 195.147,152.826 195.594 C 153.487 196.149,153.487 196.149,152.877 195.429 C 152.146 194.565,152.223 194.575,151.699 195.269 M156.055 199.198 C 157.280 200.433,158.355 201.443,158.443 201.443 C 158.531 201.443,157.601 200.433,156.375 199.198 C 155.150 197.963,154.075 196.953,153.987 196.953 C 153.899 196.953,154.829 197.963,156.055 199.198 M147.058 199.278 L 145.790 200.642 147.153 199.374 C 148.421 198.194,148.664 197.915,148.421 197.915 C 148.369 197.915,147.755 198.528,147.058 199.278 M255.333 201.925 C 256.825 203.424,258.117 204.651,258.206 204.651 C 258.294 204.651,257.145 203.424,255.654 201.925 C 254.162 200.425,252.869 199.198,252.781 199.198 C 252.693 199.198,253.841 200.425,255.333 201.925 M141.121 205.213 L 140.016 206.415 141.219 205.310 C 142.339 204.281,142.569 204.010,142.324 204.010 C 142.271 204.010,141.729 204.551,141.121 205.213 M104.982 204.887 C 105.825 204.954,107.124 204.953,107.869 204.886 C 108.613 204.818,107.923 204.764,106.335 204.765 C 104.747 204.766,104.138 204.821,104.982 204.887 M111.076 204.887 C 111.920 204.954,113.219 204.953,113.963 204.886 C 114.708 204.818,114.018 204.764,112.430 204.765 C 110.842 204.766,110.233 204.821,111.076 204.887 M109.479 288.051 C 109.479 289.022,109.539 289.419,109.612 288.933 C 109.686 288.448,109.686 287.654,109.612 287.169 C 109.539 286.684,109.479 287.081,109.479 288.051 M220.128 305.273 C 220.437 305.354,220.942 305.354,221.251 305.273 C 221.560 305.193,221.307 305.127,220.690 305.127 C 220.072 305.127,219.820 305.193,220.128 305.273 M182.277 305.594 C 182.586 305.675,183.091 305.675,183.400 305.594 C 183.709 305.513,183.456 305.447,182.839 305.447 C 182.221 305.447,181.969 305.513,182.277 305.594 M214.839 305.600 C 215.238 305.676,215.816 305.674,216.122 305.593 C 216.429 305.513,216.103 305.450,215.397 305.454 C 214.691 305.457,214.440 305.523,214.839 305.600 M189.976 305.927 C 190.638 305.997,191.720 305.997,192.382 305.927 C 193.043 305.858,192.502 305.802,191.179 305.802 C 189.856 305.802,189.314 305.858,189.976 305.927 M205.694 305.927 C 206.355 305.997,207.438 305.997,208.099 305.927 C 208.761 305.858,208.220 305.802,206.897 305.802 C 205.573 305.802,205.032 305.858,205.694 305.927 " stroke="none" fill="#81a71a" fill-rule="evenodd"></path><path id="path3" d="M259.171 44.828 L 257.418 46.672 259.262 44.919 C 260.277 43.954,261.107 43.124,261.107 43.074 C 261.107 42.836,260.800 43.114,259.171 44.828 M319.968 44.587 C 320.657 45.293,321.293 45.870,321.381 45.870 C 321.469 45.870,320.978 45.293,320.289 44.587 C 319.600 43.881,318.964 43.304,318.875 43.304 C 318.787 43.304,319.279 43.881,319.968 44.587 M332.719 72.975 C 332.723 73.681,332.788 73.932,332.865 73.533 C 332.942 73.134,332.939 72.556,332.859 72.250 C 332.778 71.943,332.716 72.269,332.719 72.975 M332.719 77.466 C 332.723 78.172,332.788 78.423,332.865 78.024 C 332.942 77.625,332.939 77.047,332.859 76.740 C 332.778 76.434,332.716 76.760,332.719 77.466 M259.182 105.694 C 260.140 106.664,260.997 107.458,261.085 107.458 C 261.173 107.458,260.461 106.664,259.503 105.694 C 258.545 104.723,257.688 103.929,257.600 103.929 C 257.512 103.929,258.224 104.723,259.182 105.694 M288.939 128.540 C 289.516 128.612,290.382 128.610,290.864 128.537 C 291.346 128.464,290.874 128.406,289.816 128.407 C 288.757 128.409,288.363 128.469,288.939 128.540 M258.658 155.413 C 258.658 157.177,258.712 157.858,258.777 156.926 C 258.842 155.994,258.842 154.550,258.776 153.718 C 258.710 152.886,258.657 153.649,258.658 155.413 M367.597 191.886 C 367.512 192.892,367.559 193.597,367.702 193.454 C 367.845 193.310,367.915 192.487,367.857 191.625 L 367.752 190.056 367.597 191.886 M261.909 195.990 C 262.956 197.049,263.885 197.915,263.974 197.915 C 264.062 197.915,263.277 197.049,262.229 195.990 C 261.182 194.932,260.253 194.066,260.164 194.066 C 260.076 194.066,260.861 194.932,261.909 195.990 M273.055 204.552 C 273.364 204.632,273.869 204.632,274.178 204.552 C 274.487 204.471,274.234 204.405,273.617 204.405 C 272.999 204.405,272.747 204.471,273.055 204.552 M304.013 204.557 C 304.412 204.634,304.990 204.631,305.296 204.551 C 305.603 204.471,305.277 204.408,304.571 204.411 C 303.865 204.415,303.614 204.481,304.013 204.557 M279.952 204.883 C 280.525 204.954,281.464 204.954,282.037 204.883 C 282.610 204.812,282.141 204.754,280.994 204.754 C 279.848 204.754,279.379 204.812,279.952 204.883 M295.990 204.883 C 296.564 204.954,297.502 204.954,298.075 204.883 C 298.649 204.812,298.180 204.754,297.033 204.754 C 295.886 204.754,295.417 204.812,295.990 204.883 " stroke="none" fill="#d4a05c" fill-rule="evenodd"></path><path id="path4" d="M72.013 112.590 C 72.702 113.296,73.338 113.873,73.426 113.873 C 73.514 113.873,73.023 113.296,72.334 112.590 C 71.645 111.885,71.009 111.307,70.920 111.307 C 70.832 111.307,71.324 111.885,72.013 112.590 M108.982 128.540 C 109.555 128.611,110.493 128.611,111.067 128.540 C 111.640 128.469,111.171 128.411,110.024 128.411 C 108.877 128.411,108.408 128.469,108.982 128.540 M144.166 201.844 L 143.224 202.887 144.266 201.945 C 145.238 201.067,145.456 200.802,145.208 200.802 C 145.153 200.802,144.684 201.271,144.166 201.844 M101.928 204.878 C 102.327 204.955,102.905 204.952,103.211 204.872 C 103.518 204.791,103.192 204.728,102.486 204.732 C 101.780 204.736,101.529 204.801,101.928 204.878 M115.721 204.878 C 116.120 204.955,116.698 204.952,117.005 204.872 C 117.311 204.791,116.985 204.728,116.279 204.732 C 115.573 204.736,115.322 204.801,115.721 204.878 M290.378 291.419 C 290.381 292.125,290.447 292.376,290.524 291.977 C 290.600 291.578,290.597 291.001,290.517 290.694 C 290.437 290.387,290.374 290.714,290.378 291.419 " stroke="none" fill="#b2cc75" fill-rule="evenodd"></path></g></svg>